<?xml version="1.0" encoding="UTF-8"?>
<!DOCTYPE svg PUBLIC "-//W3C//DTD SVG 1.1//EN" "http://www.w3.org/Graphics/SVG/1.1/DTD/svg11.dtd">
<!-- Creator: CorelDRAW 2018 (64 Bit) -->
<svg xmlns="http://www.w3.org/2000/svg" xml:space="preserve" width="29.3568mm" height="29.4194mm" version="1.1" style="shape-rendering:geometricPrecision; text-rendering:geometricPrecision; image-rendering:optimizeQuality; fill-rule:evenodd; clip-rule:evenodd"
viewBox="0 0 5937.3 5950"
 xmlns:xlink="http://www.w3.org/1999/xlink">
 <defs>
  <style type="text/css">
   <![CDATA[
    .str0 {stroke:#002D40;stroke-width:40.4;stroke-miterlimit:22.9256}
    .fil0 {fill:#002D40}
    .fil1 {fill:#E8FFFA}
   ]]>
  </style>
 </defs>
 <g id="Camada_x0020_1">
  <metadata id="CorelCorpID_0Corel-Layer"/>
  <g id="_1773148097200">
   <circle class="fil0 str0" cx="2968.6" cy="2968.6" r="2948.4"/>
   <path class="fil1" d="M2887.5 5948.4l-6 0c-24,0 -46.8,-1.6 -69.6,-1.6l-8.4 -1.6c-21.6,0 -44.4,-1.6 -67.2,-3.1l-8.4 -1.6c-22.8,-1.6 -45.6,-3.1 -68.4,-6.2l-6 0c-22.8,-3.1 -45.6,-4.7 -68.4,-7.8l-7.2 -1.6c-24,-3.1 -46.8,-6.2 -69.6,-9.4l-3.6 0c-24,-4.7 -46.8,-7.8 -70.8,-12.5l-2.4 0c-74.4,-12.5 -146.4,-29.7 -218.3,-47l0 0c-24,-6.2 -48,-12.5 -70.8,-20.3l-1.2 0c-22.8,-6.2 -46.8,-12.5 -69.6,-20.3l-1.2 0c-22.8,-7.8 -44.4,-14.1 -67.2,-21.9l-4.8 -1.6c-21.6,-7.8 -43.2,-15.7 -63.6,-23.5l-4.8 -1.6c-22.8,-7.8 -44.4,-15.7 -66,-25.1l-1.2 0c-91.2,-36 -178.8,-75.1 -265.1,-120.5l-1.2 0c-20.4,-11 -40.8,-20.3 -61.2,-31.3l-4.8 -3.1c-20.4,-11 -39.6,-21.9 -60,-34.4l-1.2 0c-20.4,-12.5 -39.6,-23.5 -58.8,-34.4l-4.8 -3.1c-19.2,-12.5 -39.6,-25 -58.8,-37.6l-1.2 0c-20.4,-12.5 -39.6,-26.6 -60,-39.1l0 0c-39.6,-26.6 -78,-54.8 -116.4,-82.9l-3.6 -3.1c-18,-12.5 -36,-26.6 -54,-40.7l-2.4 -3.1c-16.8,-12.5 -33.6,-26.6 -51.6,-40.7l-7.2 -6.3c-15.6,-12.5 -31.2,-26.6 -46.8,-40.7l-7.2 -4.7c-15.6,-14.1 -31.2,-28.2 -46.8,-42.2l-7.2 -6.3 -6 -6.2c99.6,-25.1 199.2,-51.7 296.4,-87.7 87.6,-32.9 183.6,-50.1 262.8,-104.9 118.8,-34.4 230.4,-84.5 340.7,-140.8 49.2,-25 76.8,-64.2 92.4,-115.8 31.2,-97 48,-197.2 78,-294.2 8.4,-40.7 32.4,-45.4 63.6,-45.4 7.2,0 13.2,0 20.4,0 27.6,1.6 55.2,21.9 81.6,21.9 13.2,0 26.4,-4.7 39.6,-18.8 78,-222.2 14.4,-419.4 -104.4,-608.8l-4.8 -20.3c0,-64.2 -42,-112.7 -66,-169 -21.6,-67.3 -48,-134.6 -63.6,-205 -8.4,-43.8 -32.4,-73.6 -75.6,-89.2 -51.6,-18.8 -76.8,-53.2 -88.8,-112.7 -18,-90.8 -48,-180 -97.2,-259.8 -31.2,-93.9 -58.8,-189.4 -85.2,-286.4 -19.2,-68.9 -16.8,-137.7 -7.2,-206.6 8.4,-65.7 36,-120.5 104.4,-144 54,-18.8 68.4,-56.3 64.8,-112.7 -8.4,-100.2 -9.6,-201.9 -38.4,-300.5 1.2,-117.4 -31.2,-233.2 -6,-350.6l13.2 -17.2 12 -7.8c-16.8,-144 39.6,-256.7 144,-353.7 56.4,-53.2 111.6,-109.5 148.8,-180 19.2,-37.6 46.8,-67.3 82.8,-89.2l-2.4 -9.4c238.8,-203.5 503.9,-303.6 795.5,-303.6 90,0 182.4,9.4 277.2,28.2 194.4,39.1 386.3,82.9 562.7,173.7 210,106.4 376.7,261.4 496.7,464.8 62.4,104.9 74.4,225.4 87.6,342.7 6,50.1 10.8,100.2 15.6,148.7l0 11 1.2 14.1c-9.6,164.3 -19.2,328.7 -30,491.4 -2.4,42.3 6,67.3 52.8,79.8 50.4,14.1 75.6,56.3 78,108 1.2,37.6 -2.4,75.1 -3.6,112.7l9.6 6.2 9.6 18.8c1.2,17.2 -2.4,34.4 -2.4,51.7 -3.6,87.6 -44.4,165.9 -62.4,248.8 -56.4,114.2 -91.2,237.9 -127.2,358.4 -12,40.7 -43.2,67.3 -80.4,67.3 -61.2,3.1 -84,42.3 -97.2,87.7 -56.4,208.2 -127.2,410 -221.9,602.5 -81.6,62.6 -69.6,153.4 -64.8,237.9 1.2,39.1 12,78.3 18,115.8 6,43.8 25.2,62.6 58.8,62.6 8.4,0 18,-1.6 27.6,-3.1 16.8,-4.7 33.6,-10.9 50.4,-10.9 8.4,0 16.8,1.6 25.2,6.2 27.6,6.3 33.6,28.2 39.6,53.2 8.4,43.8 9.6,89.2 25.2,131.5 10.8,42.3 24,86.1 33.6,128.3 8.4,32.9 25.2,51.6 51.6,67.3 21.6,15.7 45.6,29.7 68.4,45.4 37.2,47 87.6,78.2 146.4,92.3 20.4,6.2 37.2,18.8 58.8,25 26.4,32.9 64.8,42.2 104.4,48.5 114,68.9 241.2,104.8 363.5,154.9 24,18.8 49.2,34.4 76.8,43.8l-7.2 6.3 0 0c-34.8,32.9 -70.8,62.6 -106.8,92.3l-3.6 3.1c-110.4,90.8 -226.8,173.7 -349.1,248.8l-4.8 3.1c-19.2,10.9 -38.4,21.9 -57.6,34.4l-3.6 1.6c-19.2,10.9 -38.4,21.9 -58.8,32.9l-6 3.1c-19.2,9.4 -39.6,20.3 -58.8,31.3l-3.6 1.6c-20.4,9.4 -40.8,20.3 -61.2,29.8l-3.6 1.6c-20.4,11 -40.8,20.3 -62.4,29.7l-3.6 1.6c-21.6,9.4 -43.2,18.8 -66,28.2l-1.2 1.6c-20.4,7.8 -42,17.2 -63.6,25l-7.2 3.1c-20.4,7.8 -40.8,15.7 -61.2,23.5l-7.2 3.1c-20.4,6.3 -40.8,14.1 -61.2,20.3l-8.4 3.1c-20.4,7.8 -40.8,14.1 -61.2,20.3l-8.4 3.1c-20.4,6.2 -42,12.5 -62.4,18.8l-7.2 1.6c-21.6,6.2 -43.2,11 -64.8,17.2l-6 1.6c-22.8,6.3 -45.6,11 -68.4,17.2l-2.4 0c-22.8,4.7 -46.8,10.9 -70.8,15.6l-3.6 0c-22.8,4.7 -45.6,9.4 -68.4,14.1l-7.2 1.6c-22.8,3.1 -45.6,7.8 -68.4,11l-3.6 0c-22.8,3.1 -45.6,6.2 -68.4,9.4l-9.6 1.6c-21.6,3.1 -44.4,4.7 -66,7.8l-8.4 0c-21.6,3.1 -43.2,4.7 -66,6.2l-9.6 1.6c-22.8,1.6 -44.4,3.1 -66,3.1l-9.6 1.6c-22.8,0 -45.6,1.6 -69.6,1.6l-6 0c-25.2,1.6 -50.4,1.6 -75.6,1.6l0 0c-25.2,0 -50.4,0 -75.6,-1.6z"/>
  </g>
 </g>
</svg>
