<?xml version="1.0" encoding="UTF-8"?>
<!DOCTYPE svg PUBLIC "-//W3C//DTD SVG 1.1//EN" "http://www.w3.org/Graphics/SVG/1.1/DTD/svg11.dtd">
<!-- Creator: CorelDRAW 2018 (64 Bit) -->
<svg xmlns="http://www.w3.org/2000/svg" xml:space="preserve" width="4.0263mm" height="5.0015mm" version="1.1" style="shape-rendering:geometricPrecision; text-rendering:geometricPrecision; image-rendering:optimizeQuality; fill-rule:evenodd; clip-rule:evenodd"
viewBox="0 0 175.9 218.5"
 xmlns:xlink="http://www.w3.org/1999/xlink">
 <defs>
  <style type="text/css">
   <![CDATA[
    .fil0 {fill:#002D40;fill-rule:nonzero}
   ]]>
  </style>
 </defs>
 <g id="Camada_x0020_1">
  <metadata id="CorelCorpID_0Corel-Layer"/>
  <path class="fil0" d="M98.2 168.4l0 27.6 -2.2 2 -13.2 0 -2 -2 0 -27.6c-9,-3.5 -15.6,-12.2 -15.6,-22.6 0,-13.4 10.9,-24.3 24.3,-24.3 13.4,0 24.3,10.9 24.3,24.3 0,10.4 -6.5,19.1 -15.6,22.6zm-40.7 -112.8c0,-16.8 13.7,-30.5 30.5,-30.5 16.8,0 30.5,13.7 30.5,30.5l0 16.6 -60.9 0 0 -16.6zm99.4 16.6l-13.3 0 0 -16.6c0,-30.7 -25,-55.7 -55.6,-55.7 -30.7,0 -55.6,25 -55.6,55.7l0 16.6 -13.4 0c-10.4,0 -18.9,8.5 -18.9,18.9l0 108.2c0,10.6 8.5,19.1 18.9,19.1l137.9 0c10.6,0 19.1,-8.6 19.1,-19.1l0 -108.2c0,-10.4 -8.6,-18.9 -19.1,-18.9z"/>
 </g>
</svg>
