<?xml version="1.0" encoding="UTF-8"?>
<!DOCTYPE svg PUBLIC "-//W3C//DTD SVG 1.1//EN" "http://www.w3.org/Graphics/SVG/1.1/DTD/svg11.dtd">
<!-- Creator: CorelDRAW 2018 (64 Bit) -->
<svg xmlns="http://www.w3.org/2000/svg" xml:space="preserve" width="40.0236mm" height="12.136mm" version="1.1" style="shape-rendering:geometricPrecision; text-rendering:geometricPrecision; image-rendering:optimizeQuality; fill-rule:evenodd; clip-rule:evenodd"
viewBox="0 0 213.55 64.75"
 xmlns:xlink="http://www.w3.org/1999/xlink">
 <defs>
  <style type="text/css">
   <![CDATA[
    .fil0 {fill:red}
    .fil3 {fill:#FEFEFE;fill-rule:nonzero}
    .fil1 {fill:red;fill-rule:nonzero}
    .fil2 {fill:white;fill-rule:nonzero}
   ]]>
  </style>
 </defs>
 <g id="Camada_x0020_1">
  <metadata id="CorelCorpID_0Corel-Layer"/>
  <g id="_2505314435712">
   <g>
    <path class="fil0" d="M160.28 60.43l4.71 -10.05c0.46,-0.98 1.62,-1.13 2.11,-0.11l4.82 9.96c0,0 0.65,2.02 -1.5,1.34l-5.18 -2.9 4.13 0.02 -2.76 -5.62c0,0 -0.46,-0.72 -0.95,0.2 -0.45,0.84 -3.01,6.79 -3.31,7.71 -0.44,1.35 -2.88,1.18 -2.08,-0.53z"/>
    <path id="1" class="fil1" d="M165.04 50.4l-4.71 10.05 -0.1 -0.04 4.71 -10.05 0 0 0.1 0.04zm2.11 -0.15l-0.1 0.05 0 0 -0.05 -0.09 -0.05 -0.08 -0.05 -0.08 -0.06 -0.07 -0.06 -0.06 -0.06 -0.06 -0.06 -0.05 -0.07 -0.04 -0.07 -0.04 -0.07 -0.03 -0.07 -0.03 -0.07 -0.02 -0.07 -0.01 -0.07 -0.01 -0.07 -0 -0.07 0 -0.07 0.01 -0.07 0.01 -0.07 0.02 -0.07 0.02 -0.07 0.03 -0.07 0.04 -0.07 0.04 -0.07 0.05 -0.06 0.05 -0.06 0.06 -0.06 0.06 -0.06 0.07 -0.05 0.07 -0.05 0.08 -0.05 0.08 -0.04 0.09 -0.1 -0.04 0.05 -0.09 0.05 -0.09 0.05 -0.08 0.06 -0.08 0.06 -0.07 0.06 -0.07 0.07 -0.06 0.07 -0.06 0.07 -0.05 0.07 -0.04 0.08 -0.04 0.08 -0.03 0.08 -0.03 0.08 -0.02 0.08 -0.02 0.08 -0.01 0.08 -0 0.08 0 0.08 0.01 0.08 0.02 0.08 0.02 0.08 0.03 0.08 0.04 0.07 0.04 0.07 0.05 0.07 0.06 0.07 0.06 0.06 0.07 0.06 0.08 0.06 0.08 0.05 0.09 0.05 0.1 0 0zm4.72 10.01l-4.82 -9.96 0.1 -0.05 4.82 9.96 0 0.01 -0.1 0.04zm0.1 -0.05l0 0 0 0 -0 -0.01zm-1.57 1.41l0.05 -0.09 -0.01 -0 0.19 0.06 0.18 0.04 0.16 0.03 0.14 0.01 0.13 0 0.12 -0.01 0.1 -0.02 0.09 -0.03 0.08 -0.04 0.07 -0.04 0.06 -0.05 0.05 -0.06 0.04 -0.06 0.03 -0.07 0.03 -0.07 0.02 -0.07 0.02 -0.08 0.01 -0.08 0.01 -0.08 0 -0.08 -0 -0.08 -0.01 -0.07 -0.01 -0.07 -0.01 -0.07 -0.01 -0.06 -0.01 -0.06 -0.01 -0.05 -0.01 -0.04 -0.01 -0.03 -0.01 -0.03 -0.01 -0.02 -0 -0.01 0.1 -0.03 0 0.01 0.01 0.02 0.01 0.03 0.01 0.04 0.01 0.05 0.01 0.05 0.01 0.06 0.01 0.07 0.01 0.07 0.01 0.07 0.01 0.08 0 0.08 -0 0.08 -0.01 0.08 -0.01 0.08 -0.02 0.08 -0.02 0.08 -0.03 0.08 -0.04 0.08 -0.05 0.07 -0.06 0.07 -0.07 0.06 -0.08 0.05 -0.09 0.04 -0.1 0.03 -0.11 0.02 -0.13 0.01 -0.14 -0 -0.15 -0.01 -0.17 -0.03 -0.18 -0.04 -0.2 -0.06 -0.01 -0zm0.01 0l-0.01 -0 -0 -0 0.01 0zm-5.14 -3l5.18 2.9 -0.05 0.09 -5.18 -2.9 0.03 -0.1 0.03 0.01zm-0.05 0.09l-0.18 -0.1 0.21 0 -0.03 0.1zm4.16 0.02l-4.13 -0.02 0 -0.11 4.13 0.02 0.05 0.03 -0.05 0.08zm0.05 -0.08l0.04 0.08 -0.09 -0 0.05 -0.08zm-2.76 -5.62l2.76 5.62 -0.1 0.05 -2.76 -5.62 0.09 -0.05 0 0.01zm-0 -0.01l0 0 0 0 -0 -0.01zm-0.94 0.25l-0.09 -0.05 0 0 0.05 -0.08 0.05 -0.07 0.05 -0.07 0.05 -0.06 0.05 -0.05 0.05 -0.04 0.05 -0.04 0.05 -0.03 0.05 -0.02 0.05 -0.02 0.05 -0.01 0.04 -0 0.04 0 0.04 0 0.04 0.01 0.04 0.01 0.04 0.01 0.03 0.02 0.03 0.02 0.03 0.02 0.03 0.02 0.03 0.02 0.02 0.02 0.02 0.02 0.02 0.02 0.02 0.02 0.01 0.02 0.01 0.01 0.01 0.01 0.01 0.01 0.01 0.01 0 0 -0.09 0.06 -0 -0 -0 -0 -0.01 -0.01 -0.01 -0.01 -0.01 -0.01 -0.01 -0.01 -0.01 -0.02 -0.02 -0.02 -0.02 -0.02 -0.02 -0.02 -0.02 -0.02 -0.02 -0.02 -0.02 -0.02 -0.03 -0.01 -0.03 -0.01 -0.03 -0.01 -0.03 -0.01 -0.03 -0.01 -0.03 -0 -0.03 0 -0.03 0 -0.03 0.01 -0.03 0.01 -0.04 0.02 -0.04 0.02 -0.04 0.03 -0.04 0.04 -0.04 0.04 -0.04 0.05 -0.04 0.06 -0.04 0.07 -0.04 0.08 0 0zm-3.31 7.7l-0.1 -0.03 0 0 0.04 -0.1 0.05 -0.13 0.06 -0.15 0.07 -0.18 0.08 -0.2 0.09 -0.22 0.1 -0.24 0.11 -0.26 0.11 -0.27 0.12 -0.28 0.12 -0.29 0.13 -0.3 0.13 -0.31 0.13 -0.31 0.14 -0.32 0.14 -0.32 0.14 -0.32 0.14 -0.32 0.14 -0.31 0.13 -0.31 0.13 -0.3 0.13 -0.29 0.12 -0.28 0.12 -0.27 0.11 -0.25 0.11 -0.23 0.1 -0.22 0.09 -0.2 0.08 -0.17 0.07 -0.15 0.06 -0.12 0.05 -0.09 0.09 0.05 -0.05 0.09 -0.06 0.12 -0.07 0.15 -0.08 0.17 -0.09 0.2 -0.1 0.21 -0.11 0.23 -0.11 0.25 -0.12 0.27 -0.12 0.28 -0.13 0.29 -0.13 0.3 -0.13 0.31 -0.14 0.31 -0.14 0.32 -0.14 0.32 -0.14 0.32 -0.14 0.32 -0.13 0.31 -0.13 0.31 -0.13 0.3 -0.12 0.29 -0.12 0.28 -0.11 0.27 -0.1 0.26 -0.1 0.24 -0.09 0.22 -0.08 0.2 -0.07 0.18 -0.06 0.15 -0.05 0.13 -0.03 0.1 0 0zm-2.18 -0.57l0.1 0.04 0 0 -0.06 0.15 -0.05 0.14 -0.03 0.13 -0.01 0.12 0 0.11 0.01 0.1 0.03 0.09 0.04 0.09 0.05 0.08 0.06 0.07 0.07 0.06 0.07 0.05 0.08 0.04 0.09 0.04 0.09 0.03 0.1 0.02 0.1 0.01 0.11 0 0.11 -0.01 0.11 -0.01 0.11 -0.02 0.11 -0.03 0.11 -0.04 0.1 -0.05 0.1 -0.06 0.09 -0.07 0.09 -0.07 0.08 -0.08 0.07 -0.09 0.06 -0.1 0.06 -0.11 0.05 -0.12 0.1 0.03 -0.05 0.13 -0.06 0.12 -0.07 0.11 -0.08 0.1 -0.09 0.09 -0.09 0.08 -0.1 0.07 -0.11 0.06 -0.11 0.05 -0.11 0.04 -0.11 0.03 -0.12 0.03 -0.12 0.02 -0.12 0.01 -0.11 -0 -0.11 -0.01 -0.11 -0.02 -0.1 -0.03 -0.1 -0.04 -0.09 -0.05 -0.08 -0.06 -0.08 -0.07 -0.07 -0.08 -0.06 -0.09 -0.04 -0.1 -0.03 -0.11 -0.02 -0.12 -0 -0.13 0.02 -0.13 0.03 -0.14 0.05 -0.15 0.07 -0.16 0 0z"/>
   </g>
   <g>
    <path class="fil0" d="M173.09 61.13l-0.06 -10.33c-0.01,-0.92 1.29,-1.49 2.22,-0.66 1.37,1.24 6.06,7.95 6.06,7.95l-0.06 -7.07c-0.01,-1.56 2.05,-1.56 2.05,-0.06l0 9.88c0,1.3 -1.1,1.37 -1.96,0.25l-5.67 -7.27c0,0 -0.72,-1.27 -0.78,0.07l0.03 7.01c0.01,1.58 -1.87,1.55 -1.83,0.23z"/>
    <path id="1" class="fil1" d="M173.08 50.8l0.06 10.33 -0.11 0 -0.06 -10.33 0.11 -0zm2.2 -0.7l-0.07 0.08 0 0 -0.08 -0.07 -0.09 -0.06 -0.09 -0.06 -0.09 -0.05 -0.09 -0.04 -0.09 -0.03 -0.09 -0.03 -0.09 -0.02 -0.09 -0.01 -0.09 -0.01 -0.09 -0 -0.09 0 -0.09 0.01 -0.09 0.01 -0.08 0.02 -0.08 0.03 -0.08 0.03 -0.07 0.03 -0.07 0.04 -0.07 0.04 -0.06 0.05 -0.06 0.05 -0.06 0.06 -0.05 0.06 -0.05 0.06 -0.04 0.07 -0.03 0.07 -0.03 0.07 -0.02 0.07 -0.02 0.08 -0.01 0.08 -0 0.08 -0.11 0 0 -0.09 0.01 -0.09 0.02 -0.08 0.03 -0.08 0.03 -0.08 0.04 -0.08 0.04 -0.07 0.05 -0.07 0.06 -0.07 0.06 -0.06 0.07 -0.06 0.07 -0.05 0.07 -0.05 0.08 -0.04 0.08 -0.04 0.08 -0.03 0.09 -0.03 0.09 -0.02 0.09 -0.02 0.09 -0.01 0.09 -0 0.1 0 0.1 0.01 0.1 0.02 0.1 0.02 0.1 0.03 0.1 0.04 0.1 0.04 0.1 0.05 0.09 0.06 0.09 0.07 0.09 0.08 0 0zm5.97 7.99l0.11 -0 -0.1 0.03 -0.01 -0.02 -0.04 -0.06 -0.06 -0.09 -0.09 -0.12 -0.11 -0.15 -0.13 -0.18 -0.15 -0.21 -0.16 -0.23 -0.18 -0.25 -0.19 -0.27 -0.21 -0.29 -0.22 -0.3 -0.23 -0.32 -0.24 -0.33 -0.24 -0.34 -0.25 -0.34 -0.25 -0.35 -0.26 -0.35 -0.26 -0.35 -0.26 -0.34 -0.26 -0.34 -0.25 -0.33 -0.25 -0.32 -0.24 -0.31 -0.23 -0.29 -0.22 -0.28 -0.21 -0.26 -0.2 -0.24 -0.19 -0.21 -0.17 -0.19 -0.15 -0.16 -0.14 -0.13 0.07 -0.08 0.14 0.13 0.16 0.16 0.17 0.19 0.19 0.22 0.2 0.24 0.21 0.26 0.22 0.28 0.23 0.29 0.24 0.31 0.25 0.32 0.25 0.33 0.26 0.34 0.26 0.34 0.26 0.35 0.26 0.35 0.25 0.35 0.25 0.34 0.24 0.34 0.24 0.33 0.23 0.32 0.22 0.3 0.21 0.29 0.19 0.27 0.18 0.25 0.16 0.23 0.15 0.21 0.13 0.18 0.11 0.15 0.09 0.12 0.06 0.09 0.04 0.06 0.01 0.02 -0.1 0.03zm0.05 -7.07l0.06 7.07 -0.11 0 -0.06 -7.07 0 0 0.11 -0zm2.05 -0.06l-0.11 0 0 0 -0.01 -0.13 -0.02 -0.12 -0.03 -0.11 -0.04 -0.11 -0.04 -0.1 -0.05 -0.09 -0.06 -0.08 -0.07 -0.07 -0.07 -0.06 -0.08 -0.05 -0.08 -0.05 -0.08 -0.04 -0.09 -0.03 -0.09 -0.02 -0.09 -0.01 -0.09 -0 -0.09 0.01 -0.09 0.01 -0.09 0.02 -0.09 0.03 -0.08 0.04 -0.08 0.05 -0.08 0.06 -0.07 0.07 -0.07 0.07 -0.06 0.08 -0.05 0.09 -0.04 0.1 -0.04 0.11 -0.03 0.12 -0.02 0.13 -0 0.14 -0.11 0 0 -0.15 0.02 -0.14 0.03 -0.13 0.04 -0.12 0.05 -0.11 0.06 -0.1 0.07 -0.09 0.07 -0.08 0.08 -0.07 0.08 -0.06 0.09 -0.05 0.09 -0.04 0.1 -0.04 0.1 -0.02 0.1 -0.02 0.1 -0.01 0.1 0 0.1 0.01 0.1 0.02 0.1 0.03 0.09 0.04 0.09 0.05 0.09 0.06 0.08 0.07 0.07 0.08 0.07 0.09 0.06 0.1 0.05 0.11 0.04 0.11 0.03 0.12 0.02 0.13 0.01 0.14 0 0zm-0.11 9.88l0 -9.88 0.11 0 0 9.88 0 0 -0.11 0zm-1.94 0.28l0.08 -0.07 0 0 0.08 0.1 0.08 0.09 0.08 0.09 0.08 0.08 0.08 0.07 0.08 0.07 0.08 0.06 0.08 0.05 0.08 0.04 0.08 0.04 0.08 0.03 0.08 0.02 0.07 0.02 0.07 0.01 0.07 0 0.07 -0 0.06 -0.01 0.06 -0.02 0.06 -0.02 0.06 -0.03 0.05 -0.04 0.05 -0.04 0.05 -0.05 0.04 -0.06 0.04 -0.06 0.03 -0.07 0.03 -0.08 0.03 -0.09 0.02 -0.09 0.01 -0.1 0.01 -0.11 0 -0.11 0.11 0 -0 0.12 -0.01 0.11 -0.02 0.11 -0.02 0.1 -0.03 0.09 -0.03 0.09 -0.04 0.08 -0.04 0.07 -0.05 0.07 -0.05 0.06 -0.06 0.05 -0.06 0.04 -0.07 0.04 -0.07 0.03 -0.07 0.02 -0.08 0.01 -0.08 0 -0.08 -0 -0.08 -0.01 -0.08 -0.02 -0.08 -0.03 -0.09 -0.03 -0.09 -0.04 -0.09 -0.05 -0.09 -0.05 -0.09 -0.06 -0.09 -0.07 -0.09 -0.08 -0.09 -0.08 -0.08 -0.09 -0.08 -0.1 -0.08 -0.1 0 0zm0.08 -0.07l0 0 -0.02 -0.02 0.02 0.02zm-5.67 -7.27l5.67 7.27 -0.08 0.07 -5.67 -7.27 -0 -0.01 0.09 -0.06zm-0.08 0.07l-0 -0 -0 -0.01 0 0.01zm-0.69 0.03l-0.11 0 0 -0 0.01 -0.12 0.01 -0.11 0.01 -0.09 0.02 -0.08 0.02 -0.07 0.03 -0.06 0.03 -0.05 0.03 -0.04 0.04 -0.03 0.04 -0.02 0.05 -0.01 0.04 0 0.04 0.01 0.04 0.02 0.04 0.02 0.04 0.03 0.04 0.03 0.04 0.04 0.04 0.04 0.03 0.04 0.03 0.04 0.03 0.04 0.03 0.04 0.03 0.04 0.03 0.04 0.02 0.03 0.02 0.03 0.02 0.03 0.01 0.02 0.01 0.02 0.01 0.01 0 0 -0.09 0.05 -0 -0 -0.01 -0.01 -0.01 -0.02 -0.01 -0.02 -0.02 -0.03 -0.02 -0.03 -0.02 -0.03 -0.02 -0.04 -0.03 -0.04 -0.03 -0.04 -0.03 -0.04 -0.03 -0.04 -0.03 -0.04 -0.03 -0.03 -0.03 -0.03 -0.03 -0.03 -0.03 -0.02 -0.03 -0.02 -0.03 -0.01 -0.03 -0.01 -0.02 -0 -0.02 0 -0.02 0.01 -0.02 0.01 -0.02 0.02 -0.02 0.03 -0.02 0.05 -0.02 0.06 -0.02 0.07 -0.01 0.09 -0.01 0.1 -0.01 0.12 0 -0zm-0.11 0l0 -0 0 0 0 0zm0.03 7.01l-0.03 -7.01 0.11 0 0.03 7.01 -0.11 0zm-1.83 0.23l0.11 -0 0 0 0 0.12 0.01 0.11 0.02 0.1 0.03 0.09 0.04 0.08 0.04 0.08 0.05 0.07 0.06 0.06 0.06 0.05 0.07 0.05 0.07 0.04 0.07 0.03 0.08 0.02 0.08 0.02 0.08 0.01 0.08 -0 0.08 -0.01 0.08 -0.02 0.08 -0.02 0.08 -0.03 0.08 -0.04 0.07 -0.05 0.07 -0.06 0.06 -0.07 0.06 -0.08 0.05 -0.08 0.05 -0.09 0.04 -0.1 0.03 -0.11 0.02 -0.12 0.01 -0.13 0 -0.14 0.11 0 -0 0.15 -0.02 0.14 -0.03 0.13 -0.04 0.12 -0.04 0.11 -0.05 0.1 -0.06 0.09 -0.07 0.08 -0.07 0.07 -0.08 0.06 -0.08 0.06 -0.08 0.05 -0.09 0.04 -0.09 0.03 -0.09 0.02 -0.09 0.01 -0.09 0 -0.09 -0.01 -0.09 -0.02 -0.09 -0.03 -0.08 -0.04 -0.08 -0.04 -0.08 -0.05 -0.07 -0.06 -0.06 -0.07 -0.06 -0.08 -0.05 -0.09 -0.04 -0.09 -0.03 -0.1 -0.02 -0.11 -0.01 -0.12 -0 -0.12 0 0zm0.11 -0l0 0 0 0 0 -0z"/>
   </g>
   <g>
    <path class="fil0" d="M188.02 51.54l0 9.28c0,1.4 2.08,1.61 2.09,-0.07l0.05 -9.19 3.18 -0.02c1.08,-0.01 1.45,-1.73 0,-1.8l-8.57 0c-0.73,0 -1.41,1.37 -0.07,1.79l3.32 -0.01z"/>
    <path id="1" class="fil1" d="M187.97 60.82l0 -9.28 0.11 0 0 9.28 0 0 -0.11 0zm2.09 -0.07l0.11 0 0 0 -0.01 0.16 -0.02 0.15 -0.03 0.13 -0.04 0.12 -0.05 0.11 -0.06 0.1 -0.07 0.09 -0.07 0.08 -0.08 0.07 -0.09 0.06 -0.09 0.05 -0.1 0.04 -0.1 0.03 -0.1 0.02 -0.1 0.01 -0.1 0 -0.1 -0.01 -0.1 -0.02 -0.1 -0.03 -0.1 -0.04 -0.09 -0.04 -0.09 -0.05 -0.09 -0.06 -0.08 -0.07 -0.07 -0.08 -0.07 -0.09 -0.06 -0.1 -0.05 -0.1 -0.04 -0.11 -0.03 -0.12 -0.02 -0.13 -0.01 -0.13 0.11 0 0.01 0.12 0.02 0.12 0.03 0.11 0.04 0.1 0.05 0.09 0.05 0.09 0.06 0.08 0.07 0.07 0.07 0.06 0.08 0.06 0.08 0.05 0.09 0.04 0.09 0.03 0.09 0.02 0.09 0.02 0.09 0.01 0.09 -0 0.09 -0.01 0.09 -0.02 0.09 -0.03 0.08 -0.04 0.08 -0.05 0.08 -0.05 0.07 -0.06 0.07 -0.07 0.06 -0.08 0.05 -0.09 0.04 -0.1 0.04 -0.11 0.03 -0.13 0.02 -0.14 0.01 -0.15 0 0zm0.15 -9.19l-0.05 9.19 -0.11 -0 0.05 -9.19 0.05 -0.05 0.05 0.05zm-0.11 -0l0 -0.05 0.05 0 -0.05 0.05zm3.23 0.04l-3.18 0.02 -0 -0.11 3.18 -0.02 0 0 0 0.11zm-0 -1.8l0 -0.11 0 0 0.13 0.01 0.12 0.02 0.11 0.03 0.1 0.04 0.09 0.05 0.09 0.05 0.08 0.06 0.07 0.07 0.06 0.07 0.05 0.08 0.04 0.08 0.03 0.08 0.02 0.08 0.01 0.09 0 0.09 -0.01 0.09 -0.01 0.09 -0.02 0.09 -0.03 0.08 -0.04 0.08 -0.04 0.08 -0.05 0.08 -0.05 0.07 -0.06 0.07 -0.07 0.06 -0.07 0.06 -0.08 0.05 -0.08 0.04 -0.09 0.03 -0.09 0.03 -0.1 0.02 -0.1 0.01 0 -0.11 0.09 -0 0.09 -0.01 0.09 -0.02 0.08 -0.03 0.08 -0.04 0.07 -0.04 0.07 -0.05 0.06 -0.06 0.06 -0.06 0.05 -0.06 0.04 -0.07 0.04 -0.07 0.03 -0.07 0.03 -0.08 0.02 -0.08 0.01 -0.08 0 -0.08 -0 -0.08 -0.01 -0.08 -0.02 -0.07 -0.03 -0.07 -0.03 -0.07 -0.04 -0.07 -0.05 -0.06 -0.06 -0.06 -0.07 -0.05 -0.07 -0.05 -0.09 -0.04 -0.09 -0.03 -0.11 -0.03 -0.11 -0.02 -0.13 -0.01 0 0zm0 -0.11l0 0 0 0 -0 0zm-8.57 0l8.57 0 0 0.11 -8.57 0 0 0 0 -0.11zm-0.07 1.79l0 0.11 -0.02 -0 -0.12 -0.04 -0.11 -0.05 -0.1 -0.05 -0.09 -0.06 -0.08 -0.06 -0.07 -0.07 -0.06 -0.07 -0.05 -0.07 -0.04 -0.08 -0.03 -0.08 -0.02 -0.08 -0.01 -0.08 -0.01 -0.08 0 -0.08 0.01 -0.08 0.02 -0.08 0.02 -0.08 0.03 -0.08 0.03 -0.07 0.04 -0.07 0.04 -0.07 0.05 -0.06 0.05 -0.06 0.06 -0.06 0.06 -0.05 0.06 -0.05 0.07 -0.04 0.07 -0.03 0.07 -0.03 0.07 -0.02 0.07 -0.01 0.07 -0 0 0.11 -0.06 0 -0.06 0.01 -0.06 0.02 -0.06 0.02 -0.06 0.03 -0.06 0.04 -0.06 0.04 -0.05 0.05 -0.05 0.05 -0.05 0.05 -0.04 0.06 -0.04 0.06 -0.03 0.06 -0.03 0.07 -0.03 0.07 -0.02 0.07 -0.01 0.07 -0.01 0.07 -0 0.07 0.01 0.07 0.01 0.07 0.02 0.07 0.03 0.07 0.03 0.07 0.04 0.06 0.05 0.06 0.06 0.06 0.07 0.06 0.08 0.05 0.09 0.05 0.1 0.05 0.12 0.04 -0.02 -0zm0 0.11l-0.01 0 -0.01 -0 0.02 0zm3.32 -0.01l-3.32 0.01 0 -0.11 3.32 -0.01 0.05 0.05 -0.05 0.05zm0 -0.11l0.05 0 0 0.05 -0.05 -0.05z"/>
   </g>
   <g>
    <path class="fil0" d="M194.82 50.92l-0.05 10c0,0 -0.16,0.72 0.88,0.72 0.92,0 5.28,0.03 6.33,0.03 1.34,0.01 1.07,-1.82 -0.11,-1.82l-4.26 0c0,0 -0.65,-0.03 -0.75,-0.88 -0.09,-0.76 -0.12,-6.7 -0.13,-7.97 -0.01,-1.4 -1.9,-1.83 -1.91,-0.07z"/>
    <path id="1" class="fil1" d="M194.72 60.92l0.05 -10 0.11 0 -0.05 10 -0 0.01 -0.11 -0.01zm0.11 0l0 0.01 -0 0 0 -0.01zm0.83 0.66l0 0.11 0 0 -0.1 -0 -0.09 -0.01 -0.08 -0.01 -0.08 -0.01 -0.07 -0.02 -0.07 -0.02 -0.06 -0.02 -0.05 -0.03 -0.05 -0.03 -0.05 -0.03 -0.04 -0.03 -0.04 -0.03 -0.03 -0.04 -0.03 -0.04 -0.02 -0.04 -0.02 -0.04 -0.02 -0.04 -0.01 -0.04 -0.01 -0.04 -0.01 -0.03 -0.01 -0.03 -0 -0.03 -0 -0.03 -0 -0.03 0 -0.03 0 -0.02 0 -0.02 0 -0.02 0 -0.01 0 -0.01 0 -0.01 0 -0 0.1 0.02 -0 0 -0 0 -0 0.01 -0 0.01 -0 0.01 -0 0.02 -0 0.02 0 0.02 0 0.02 0 0.03 0 0.03 0 0.03 0.01 0.03 0.01 0.03 0.01 0.03 0.01 0.03 0.02 0.03 0.02 0.03 0.02 0.03 0.03 0.03 0.03 0.03 0.03 0.03 0.04 0.03 0.04 0.02 0.05 0.02 0.05 0.02 0.06 0.02 0.07 0.02 0.07 0.01 0.08 0.01 0.08 0.01 0.09 0 0 0zm6.33 0.03l-0 0.11 0 0 -0.11 -0 -0.13 -0 -0.14 -0 -0.16 -0 -0.17 -0 -0.19 -0 -0.2 -0 -0.21 -0 -0.22 -0 -0.23 -0 -0.23 -0 -0.24 -0 -0.24 -0 -0.25 -0 -0.25 -0 -0.25 -0 -0.25 -0 -0.25 -0 -0.24 -0 -0.24 -0 -0.24 -0 -0.23 -0 -0.22 -0 -0.21 -0 -0.2 -0 -0.19 -0 -0.18 -0 -0.16 -0 -0.15 -0 -0.13 0 -0.11 -0 -0.1 0 0 -0.11 0.1 0 0.11 0 0.13 0 0.15 0 0.16 0 0.18 0 0.19 0 0.2 0 0.21 0 0.22 0 0.23 0 0.24 0 0.24 0 0.25 0 0.25 0 0.25 0 0.25 0 0.25 0 0.25 0 0.24 0 0.24 0 0.23 0 0.23 0 0.22 0 0.21 0 0.2 0 0.19 0 0.17 0 0.16 0 0.14 0 0.13 0 0.11 0 0 0zm-0.11 -1.72l0 -0.11 0 0 0.11 0.01 0.11 0.02 0.1 0.03 0.1 0.04 0.09 0.04 0.08 0.05 0.08 0.06 0.07 0.06 0.06 0.07 0.06 0.08 0.05 0.08 0.04 0.08 0.04 0.09 0.03 0.09 0.02 0.09 0.01 0.09 0.01 0.09 -0 0.09 -0.01 0.09 -0.02 0.09 -0.03 0.08 -0.04 0.08 -0.04 0.08 -0.05 0.07 -0.06 0.07 -0.07 0.06 -0.08 0.05 -0.09 0.04 -0.1 0.03 -0.11 0.03 -0.12 0.02 -0.13 0 0 -0.11 0.12 -0 0.11 -0.01 0.1 -0.02 0.09 -0.03 0.08 -0.04 0.07 -0.05 0.06 -0.05 0.05 -0.06 0.05 -0.06 0.04 -0.07 0.03 -0.07 0.02 -0.07 0.02 -0.08 0.01 -0.08 0 -0.08 -0 -0.08 -0.01 -0.08 -0.02 -0.08 -0.03 -0.08 -0.03 -0.08 -0.04 -0.07 -0.04 -0.07 -0.05 -0.07 -0.06 -0.06 -0.06 -0.06 -0.07 -0.05 -0.07 -0.05 -0.08 -0.04 -0.09 -0.03 -0.09 -0.02 -0.1 -0.01 -0.1 -0.01 0 0zm-4.26 -0.11l4.26 0 0 0.11 -4.26 0 -0 0 0 -0.11zm0 0.11l-0 0 0 0 0 0zm-0.8 -0.93l0.11 -0.01 0 0 0.01 0.07 0.01 0.07 0.02 0.07 0.02 0.06 0.02 0.06 0.02 0.05 0.02 0.05 0.03 0.05 0.03 0.04 0.03 0.04 0.03 0.04 0.03 0.03 0.03 0.03 0.03 0.03 0.03 0.02 0.03 0.02 0.03 0.02 0.03 0.02 0.03 0.02 0.03 0.01 0.03 0.01 0.03 0.01 0.02 0.01 0.02 0.01 0.02 0 0.02 0 0.02 0 0.01 0 0.01 0 0.01 0 0 0 0 0 -0.01 0.11 -0 0 -0.01 -0 -0.01 -0 -0.01 -0 -0.02 -0 -0.02 -0 -0.02 -0 -0.02 -0.01 -0.03 -0.01 -0.03 -0.01 -0.03 -0.01 -0.03 -0.01 -0.03 -0.01 -0.03 -0.02 -0.03 -0.02 -0.04 -0.02 -0.04 -0.02 -0.04 -0.03 -0.03 -0.03 -0.03 -0.03 -0.03 -0.04 -0.03 -0.04 -0.03 -0.04 -0.03 -0.05 -0.03 -0.05 -0.03 -0.05 -0.03 -0.06 -0.02 -0.06 -0.02 -0.07 -0.02 -0.07 -0.01 -0.08 -0.01 -0.08 0 0zm-0.13 -7.98l0.11 -0 0 0 0 0.13 0 0.16 0 0.18 0 0.2 0 0.22 0 0.24 0 0.26 0 0.27 0 0.29 0 0.3 0 0.31 0 0.31 0 0.32 0 0.32 0 0.33 0 0.33 0 0.32 0 0.32 0 0.32 0 0.31 0 0.3 0.01 0.29 0.01 0.28 0.01 0.26 0.01 0.25 0.01 0.23 0.01 0.21 0.01 0.19 0.01 0.17 0.01 0.14 0.01 0.11 0.01 0.08 -0.11 0.01 -0.01 -0.09 -0.01 -0.12 -0.01 -0.14 -0.01 -0.17 -0.01 -0.19 -0.01 -0.21 -0.01 -0.23 -0.01 -0.25 -0.01 -0.26 -0.01 -0.28 -0.01 -0.29 -0 -0.3 -0 -0.31 -0 -0.32 -0 -0.32 -0 -0.32 -0 -0.33 -0 -0.33 -0 -0.32 -0 -0.32 -0 -0.31 -0 -0.31 -0 -0.3 -0 -0.29 -0 -0.27 -0 -0.26 -0 -0.24 -0 -0.22 -0 -0.2 -0 -0.18 -0 -0.16 -0 -0.13 0 0zm-1.8 -0.07l-0.11 0 0 0 0.01 -0.16 0.02 -0.15 0.03 -0.14 0.04 -0.13 0.05 -0.12 0.05 -0.1 0.06 -0.09 0.07 -0.08 0.07 -0.07 0.08 -0.06 0.08 -0.05 0.09 -0.03 0.09 -0.02 0.09 -0.01 0.09 -0 0.09 0.01 0.09 0.02 0.09 0.03 0.09 0.04 0.09 0.04 0.09 0.05 0.08 0.06 0.08 0.07 0.07 0.08 0.07 0.09 0.06 0.09 0.05 0.1 0.05 0.11 0.04 0.12 0.03 0.12 0.02 0.13 0.01 0.13 -0.11 0 -0.01 -0.12 -0.02 -0.12 -0.03 -0.11 -0.03 -0.11 -0.04 -0.1 -0.05 -0.09 -0.06 -0.09 -0.06 -0.08 -0.07 -0.07 -0.07 -0.06 -0.07 -0.06 -0.08 -0.05 -0.08 -0.04 -0.08 -0.03 -0.08 -0.02 -0.08 -0.02 -0.08 -0.01 -0.08 0 -0.08 0.01 -0.08 0.02 -0.08 0.03 -0.07 0.04 -0.07 0.05 -0.07 0.06 -0.06 0.07 -0.05 0.08 -0.05 0.09 -0.04 0.11 -0.03 0.12 -0.03 0.13 -0.02 0.14 -0.01 0.16 0 0z"/>
   </g>
   <g>
    <path class="fil0" d="M204.05 60.75l0 -9.96c0,-0.72 0.11,-0.83 0.82,-0.84 1.27,-0.02 5.6,-0.03 5.6,-0.03 3.41,0.08 3.5,7.17 0.42,7.14l2.51 3.1c0,0 0.72,2.41 -1.76,1.04l-4.4 -5.31 2.97 -0.03c1.66,-0.02 1.68,-4.24 -0.31,-4.24l-3.7 0.03 0 9.16c0,1.66 -2.15,1.65 -2.15,-0.05z"/>
    <path id="1" class="fil1" d="M204.1 50.79l0 9.96 -0.11 0 0 -9.96 0 0 0.11 0zm0.76 -0.89l0 0.11 0 0 -0.06 0 -0.06 0 -0.06 0 -0.05 0 -0.05 0 -0.05 0.01 -0.04 0.01 -0.04 0.01 -0.04 0.01 -0.03 0.01 -0.03 0.01 -0.03 0.01 -0.03 0.01 -0.02 0.01 -0.02 0.02 -0.02 0.02 -0.02 0.02 -0.02 0.02 -0.01 0.02 -0.01 0.03 -0.01 0.03 -0.01 0.03 -0.01 0.04 -0.01 0.04 -0.01 0.04 -0.01 0.04 -0 0.05 -0 0.05 -0 0.05 -0 0.06 -0 0.06 -0 0.07 -0.11 0 0 -0.07 0 -0.06 0 -0.06 0 -0.06 0 -0.05 0.01 -0.05 0.01 -0.05 0.01 -0.05 0.01 -0.04 0.01 -0.04 0.01 -0.04 0.01 -0.04 0.02 -0.03 0.02 -0.03 0.02 -0.03 0.02 -0.03 0.03 -0.02 0.03 -0.02 0.03 -0.02 0.03 -0.02 0.04 -0.01 0.04 -0.01 0.04 -0.01 0.04 -0.01 0.04 -0.01 0.05 -0.01 0.05 -0.01 0.05 -0 0.06 -0 0.06 -0 0.06 -0 0.07 -0 0 0zm5.61 -0.03l-0 0.11 0 0 -0.01 0 -0.04 0 -0.06 0 -0.08 0 -0.1 0 -0.12 0 -0.14 0 -0.15 0 -0.17 0 -0.18 0 -0.19 0 -0.2 0 -0.21 0 -0.22 0 -0.23 0 -0.23 0 -0.23 0 -0.24 0 -0.24 0 -0.24 0 -0.24 0 -0.23 0 -0.23 0 -0.22 0 -0.22 0 -0.21 0 -0.2 0 -0.19 0 -0.17 0 -0.16 0 -0.14 0 -0.13 0 -0 -0.11 0.13 -0 0.14 -0 0.16 -0 0.17 -0 0.19 -0 0.2 -0 0.21 -0 0.22 -0 0.22 -0 0.23 -0 0.23 -0 0.24 -0 0.24 -0 0.24 -0 0.24 -0 0.23 -0 0.23 -0 0.23 -0 0.22 -0 0.21 -0 0.2 -0 0.19 -0 0.18 -0 0.17 -0 0.15 -0 0.14 -0 0.12 -0 0.1 0 0.08 0 0.06 -0 0.04 0 0.01 0 0 0zm0.46 7.16l-0.08 0.07 0.04 -0.09 0.27 -0.02 0.25 -0.05 0.23 -0.09 0.22 -0.12 0.2 -0.15 0.18 -0.18 0.16 -0.21 0.15 -0.23 0.13 -0.25 0.11 -0.27 0.09 -0.29 0.07 -0.3 0.05 -0.31 0.03 -0.32 0.02 -0.33 -0 -0.33 -0.02 -0.33 -0.04 -0.33 -0.06 -0.32 -0.08 -0.32 -0.1 -0.31 -0.12 -0.29 -0.13 -0.28 -0.15 -0.26 -0.17 -0.24 -0.19 -0.22 -0.21 -0.19 -0.23 -0.16 -0.25 -0.13 -0.26 -0.1 -0.28 -0.06 -0.3 -0.03 0 -0.11 0.32 0.03 0.3 0.07 0.28 0.1 0.26 0.14 0.24 0.17 0.22 0.2 0.2 0.22 0.18 0.25 0.16 0.27 0.14 0.28 0.12 0.3 0.1 0.31 0.08 0.32 0.06 0.33 0.04 0.33 0.02 0.34 0 0.34 -0.02 0.33 -0.04 0.33 -0.05 0.32 -0.07 0.31 -0.09 0.3 -0.11 0.28 -0.13 0.26 -0.15 0.24 -0.17 0.22 -0.19 0.19 -0.21 0.16 -0.23 0.13 -0.25 0.1 -0.27 0.06 -0.29 0.02 0.04 -0.09zm-0.08 0.07l-0.07 -0.09 0.11 0 -0.04 0.09zm2.51 3.1l-2.51 -3.1 0.08 -0.07 2.51 3.1 0.01 0.02 -0.09 0.05zm0.08 -0.07l0.01 0.01 0 0.01 -0.01 -0.02zm-1.84 1.11l0.08 -0.07 -0.02 -0.01 0.22 0.12 0.2 0.09 0.19 0.08 0.17 0.06 0.15 0.04 0.14 0.02 0.12 0.01 0.11 -0.01 0.09 -0.02 0.08 -0.03 0.07 -0.04 0.06 -0.05 0.05 -0.05 0.04 -0.06 0.03 -0.07 0.03 -0.07 0.02 -0.08 0.01 -0.08 0.01 -0.08 0 -0.09 -0 -0.08 -0 -0.08 -0.01 -0.08 -0.01 -0.08 -0.01 -0.07 -0.01 -0.07 -0.01 -0.06 -0.01 -0.05 -0.01 -0.04 -0.01 -0.03 -0 -0.02 -0 -0.01 0.1 -0.03 0 0.01 0.01 0.02 0.01 0.03 0.01 0.04 0.01 0.05 0.01 0.06 0.01 0.07 0.01 0.07 0.01 0.08 0.01 0.08 0 0.09 0 0.09 -0 0.09 -0.01 0.09 -0.01 0.09 -0.02 0.09 -0.03 0.08 -0.04 0.08 -0.05 0.07 -0.06 0.07 -0.07 0.06 -0.08 0.05 -0.09 0.03 -0.11 0.02 -0.12 0.01 -0.13 -0.01 -0.15 -0.02 -0.16 -0.04 -0.17 -0.06 -0.19 -0.08 -0.21 -0.1 -0.22 -0.12 -0.02 -0.01zm0.02 0.01l-0.01 -0 -0.01 -0.01 0.02 0.01zm-4.33 -5.39l4.4 5.31 -0.08 0.07 -4.4 -5.31 0.04 -0.09 0.04 0.02zm-0.08 0.07l-0.07 -0.09 0.11 -0 -0.04 0.09zm3.01 -0.01l-2.97 0.03 -0 -0.11 2.97 -0.03 0 0 0 0.11zm-0.31 -4.24l-0 -0.11 0 0 0.19 0.01 0.18 0.04 0.16 0.06 0.15 0.08 0.14 0.1 0.13 0.12 0.12 0.13 0.1 0.15 0.09 0.16 0.08 0.17 0.07 0.18 0.06 0.19 0.04 0.19 0.03 0.2 0.02 0.2 0.01 0.2 0 0.2 -0.01 0.2 -0.02 0.2 -0.03 0.19 -0.04 0.19 -0.05 0.18 -0.06 0.17 -0.07 0.16 -0.08 0.15 -0.09 0.13 -0.11 0.12 -0.12 0.1 -0.13 0.08 -0.14 0.06 -0.15 0.04 -0.16 0.01 -0 -0.11 0.14 -0.01 0.13 -0.03 0.12 -0.05 0.11 -0.07 0.11 -0.09 0.1 -0.11 0.09 -0.12 0.08 -0.14 0.07 -0.15 0.06 -0.16 0.05 -0.17 0.04 -0.18 0.03 -0.19 0.02 -0.19 0.01 -0.19 -0 -0.2 -0.01 -0.19 -0.02 -0.19 -0.03 -0.19 -0.04 -0.19 -0.05 -0.18 -0.06 -0.17 -0.08 -0.16 -0.09 -0.15 -0.1 -0.14 -0.11 -0.12 -0.12 -0.11 -0.13 -0.09 -0.14 -0.07 -0.15 -0.05 -0.16 -0.03 -0.17 -0.01 0 0zm-0 -0.11l0 0 0 0 -0 0zm-3.7 0.03l3.7 -0.03 0 0.11 -3.7 0.03 -0.05 -0.05 0.05 -0.05zm-0.05 0.05l0 -0.05 0.05 -0 -0.05 0.05zm0 9.16l0 -9.16 0.11 0 0 9.16 0 0 -0.11 0zm-2.15 -0.05l0.11 0 0 0 0.01 0.15 0.02 0.14 0.03 0.13 0.04 0.12 0.05 0.11 0.05 0.1 0.06 0.09 0.07 0.08 0.07 0.07 0.08 0.06 0.08 0.05 0.09 0.04 0.09 0.03 0.09 0.02 0.09 0.02 0.1 0.01 0.1 -0 0.09 -0.01 0.09 -0.02 0.09 -0.03 0.09 -0.04 0.08 -0.05 0.08 -0.06 0.07 -0.07 0.07 -0.08 0.06 -0.09 0.05 -0.1 0.05 -0.11 0.04 -0.12 0.03 -0.13 0.02 -0.14 0.01 -0.15 0.11 0 -0.01 0.15 -0.02 0.15 -0.03 0.14 -0.04 0.13 -0.05 0.12 -0.06 0.11 -0.07 0.1 -0.08 0.09 -0.08 0.08 -0.09 0.07 -0.09 0.06 -0.1 0.04 -0.1 0.03 -0.1 0.02 -0.11 0.01 -0.11 0 -0.11 -0.01 -0.11 -0.02 -0.1 -0.03 -0.1 -0.04 -0.1 -0.05 -0.09 -0.06 -0.09 -0.07 -0.08 -0.08 -0.08 -0.09 -0.07 -0.1 -0.06 -0.11 -0.05 -0.12 -0.04 -0.13 -0.03 -0.14 -0.02 -0.15 -0.01 -0.16 0 0z"/>
   </g>
  </g>
  <path class="fil2" d="M14 15.19c-0.92,-5.62 3.84,-13.27 14.09,-13.27 11.42,0 17.1,9.45 17.1,19.82 0,12.9 -8.4,21.42 -20.25,21.42 -11.36,0 -20.19,-7.84 -20.19,-22.16 0,-6.42 1.73,-14.45 7.52,-18.26l-0.37 -0.56c-7.65,3.88 -11.91,10.98 -11.91,19.75 0,13.83 10.87,23.09 25.07,23.09 14.32,0 24.88,-9.38 24.88,-23.15 0,-12.16 -8.52,-21.79 -21.36,-21.79 -12.9,0 -16.3,9.63 -15.2,15.25l0.62 -0.12zm42.12 -14.26l0.01 0.62 0.78 0c2.16,0 3.91,1.73 3.95,3.88l0 34.25c-0.05,2.13 -1.8,3.85 -3.95,3.85l-0.78 0 -0.01 0.62 13.49 0 -0.01 -0.62 -0.78 0c-2.16,0 -3.91,-1.73 -3.95,-3.88l0 -36.8c0.8,0.03 4.54,-0.12 7.69,0.05 4.59,0.25 7.5,3.83 7.66,9.41 0.04,1.36 -0.12,2.83 -0.39,3.69 -1.75,5.57 -6.43,6.33 -9.64,6.41 -1.85,0.05 -3.26,0.02 -3.26,0.02l0 0.58c2.26,0 4.06,2.14 5.67,4.17 0.48,0.6 7.44,10.71 8.14,11.56 1.93,2.32 5.02,5.41 10.77,5.41l3.39 0 0 -0.62c-3.63,-0.03 -5.92,-1.95 -8.4,-4.67 -2.39,-2.61 -7.72,-10.21 -7.72,-10.21 -1.19,-1.69 -3.09,-3.73 -4.41,-4.34 5.94,0 10.49,-5.8 10.49,-11.77 0,-7.2 -4.58,-11.61 -12.07,-11.61l-16.65 0zm53.45 42.6l-0.78 0c-2.16,0 -3.92,-1.73 -3.95,-3.88l0 -34.27c0.05,-2.13 1.8,-3.85 3.95,-3.85l0.78 0 0.01 -0.62 -13.51 0 0.01 0.62 0.78 0c2.15,0 3.9,1.72 3.95,3.86l0 34.25c-0.04,2.15 -1.79,3.88 -3.95,3.88l-0.78 0 -0.01 0.62 13.51 0 -0.01 -0.62zm28.64 -43.46c-14.03,0 -23.74,8.99 -23.74,22.47 0,13.48 9.71,22.47 23.74,22.47 14.01,0 23.73,-8.99 23.73,-22.47 0,-13.48 -9.71,-22.47 -23.73,-22.47zm0 43.09c-11.37,0 -18.96,-8.24 -18.96,-20.62 0,-12.38 7.59,-20.62 18.96,-20.62 11.36,0 18.95,8.24 18.95,20.62 0,12.38 -7.59,20.62 -18.95,20.62zm62.58 -42.23l0.01 0.62 1.14 0c2.08,0 3.78,1.67 3.81,3.75l0 30.61 -33.62 -35.9 -0.61 0c0,0 0.57,3.5 0.57,7.72l0 32.07c-0.04,2.07 -1.73,3.74 -3.81,3.74l-1.14 0 -0.01 0.62 12.72 0 -0.01 -0.62 -1.14 0c-2.07,0 -3.75,-1.64 -3.81,-3.69l0 -30.74 33.67 35.91 0.57 0c0,0 -0.57,-3.9 -0.57,-7.87l0 -31.9c0.06,-2.06 1.74,-3.69 3.81,-3.69l1.14 0 0.01 -0.62 -12.73 0z"/>
  <path class="fil3" d="M99.84 53.33c-0.57,-0.46 -0.77,-1.04 -0.77,-1.58 0,-1.16 0.86,-2.05 2.12,-2.05 1.07,0 2.02,0.63 2.04,1.8l0.17 0 -0.04 -2.15 -0.69 0c-0.5,-0.11 -1.09,-0.18 -1.53,-0.18 -1.98,0 -3.05,1.49 -3.05,2.93 0,0.63 0.21,1.56 1.03,2.21l3.17 2.49c2.77,2.2 1.49,5.92 -1.79,5.92 -3.03,0 -4.31,-3.16 -2.39,-5.67l-0.16 -0.12c-2.4,2.57 -1.02,6.43 2.85,6.43 4.27,0 5.8,-4.68 2.29,-7.45l-3.25 -2.56zm25.38 10.8c-4.12,0.67 -6.46,-0.93 -6.62,-4.65l0 -2.7c-0.01,-0.51 0.31,-0.79 0.88,-0.79l0.26 0 0 -0.18 -3.43 0 0 0.18 0.28 0c0.57,0 0.89,0.29 0.89,0.8l0 3.11c-0.98,0.94 -2.42,1.52 -3.94,1.52 -3.15,-0.02 -5.52,-2.51 -5.52,-5.86 0,-3.43 2.36,-5.86 5.52,-5.86 2.32,0 3.92,1.13 4.45,3.14l0.15 0 -0.35 -2.48c-1.03,-0.66 -2.32,-1.18 -4.25,-1.18 -3.9,0 -6.82,2.65 -6.82,6.38 0,3.65 2.93,6.37 6.83,6.38 1.81,0 3.15,-0.57 4.07,-1.27 0.66,3.18 3.63,4.97 7.63,3.64l-0.01 -0.18zm5.84 -5.27l-0.18 0c-0.54,1.34 -1.25,2.29 -3.11,2.29l-3.74 0 0 -5.25 3.35 0c0.46,0.02 0.83,0.4 0.83,0.86l0 0.26 0.17 0 0 -2.77 -0.17 0 0 0.26c0,0.47 -0.38,0.85 -0.85,0.86l-3.33 0 0 -5.42 2 0c0.55,0.04 0.98,0.49 0.98,1.05l0 0.31 0.18 0 0 -1.41 0 -0.3 0 -0.51c-0.32,0.14 -1.33,0.31 -2.09,0.32l-3.54 0 0 0.18 0.22 0c0.58,0 1.12,0.44 1.12,1l0 9.82c-0.01,0.61 -0.51,1.1 -1.13,1.1l-0.22 0 -0 0.18 8.5 0 1.02 -2.83zm-1.49 -6.8c0.58,-1.09 1.28,-2.03 4.33,-2.12l0 10.57c-0.06,0.56 -0.54,1.01 -1.12,1.01l-0.22 0 -0 0.18 5.93 0c3.75,0 6.3,-2.45 6.3,-6.14 0,-3.68 -2.55,-6.05 -6.3,-6.13 -1.54,-0.03 -2.85,-0.07 -3.95,-0.05 -2.97,0.05 -4.46,0.52 -5.16,2.61l0.19 0.07zm5.47 -2.12l3.45 0c3.01,0.01 4.98,2.25 4.98,5.61 0,3.37 -1.99,5.61 -4.98,5.61l-3.45 0 0 -11.23z"/>
  <path class="fil3" d="M156.66 49.86l0 0.09 0.08 0c0.26,0 0.46,0.2 0.36,0.56l-1.26 4.41 -1.86 -5.21 -0.09 -0 -1.75 5.4 -1.43 -4.58c-0.11,-0.37 0.13,-0.58 0.37,-0.58l0.08 0 0 -0.09 -2.09 0 0 0.09 0.08 0c0.29,0 0.67,0.16 0.83,0.57l2.14 6.03 0.09 0c0.02,-0.46 0.2,-1.05 0.2,-1.05l1.43 -4.34 1.93 5.38 0.09 0c0.01,-0.45 0.21,-1.05 0.21,-1.05l1.56 -4.98c0.15,-0.42 0.54,-0.58 0.83,-0.58l0.08 0 0 -0.09 -1.86 0z"/>
  <polygon class="fil3" points="156.6,57.28 156.95,57.5 161.02,49.47 160.67,49.27 "/>
 </g>
</svg>
